<svg version="1.0" xmlns="http://www.w3.org/2000/svg" width="105" height="105" viewBox="0 0 2048 2048" fill="#68E295"><path d="M378 859.5V1488h151l-.2-628.3-.3-628.2-75.2-.3-75.3-.2v628.5zM813 877.5V1307h187V608h67.4c73.9 0 76.2.2 94.1 6.1 31.7 10.5 53.7 37.8 61.5 76 4.3 20.9 4.5 50.7.4 70.7-7.9 39.7-30.4 66.9-63.9 77.1-15.6 4.8-20.6 5.2-68.3 5.8l-45.2.5.2 79.7.3 79.6 27.9.5 28 .5 68.5 151.3 68.5 151.2 100.5-.2 100.6-.3.3-3.6c.2-3-13.4-32.8-81.3-177.5-44.9-95.6-81.2-174-80.6-174.2 2.7-.9 25.9-15.3 34.5-21.5 33.3-23.7 55.9-50 72.7-84.2 15.7-32.2 24.2-68.2 27-114 5.2-86.5-17.6-156.9-66.6-206-36.2-36.2-88-61-149.5-71.5-32.6-5.6-22.3-5.3-210.2-5.7l-173.8-.4v429.6zM378 1633v78h151l-.2-77.8-.3-77.7-75.2-.3-75.3-.2v78zM598.7 1556.7c-.4.3-.7 35-.7 77v76.3h1188v-154h-593.3c-326.4 0-593.7.3-594 .7z"/></svg>